<?xml version="1.0" encoding="UTF-8" standalone="no"?>
<!-- Created with Inkscape (http://www.inkscape.org/) -->

<svg
   xmlns:osb="http://www.openswatchbook.org/uri/2009/osb"
   xmlns:dc="http://purl.org/dc/elements/1.1/"
   xmlns:cc="http://creativecommons.org/ns#"
   xmlns:rdf="http://www.w3.org/1999/02/22-rdf-syntax-ns#"
   xmlns:svg="http://www.w3.org/2000/svg"
   xmlns="http://www.w3.org/2000/svg"
   xmlns:xlink="http://www.w3.org/1999/xlink"
   xmlns:sodipodi="http://sodipodi.sourceforge.net/DTD/sodipodi-0.dtd"
   xmlns:inkscape="http://www.inkscape.org/namespaces/inkscape"
   width="210mm"
   height="297mm"
   id="svg2"
   version="1.1"
   inkscape:version="0.48.2 r9819"
   sodipodi:docname="描画GitHub.svg">
  <defs
     id="defs4">
    <linearGradient
       inkscape:collect="always"
       id="linearGradient5876">
      <stop
         style="stop-color:#2e91dc;stop-opacity:1;"
         offset="0"
         id="stop5878" />
      <stop
         style="stop-color:#2e91dc;stop-opacity:0;"
         offset="1"
         id="stop5880" />
    </linearGradient>
    <linearGradient
       inkscape:collect="always"
       id="linearGradient5866">
      <stop
         style="stop-color:#2e91dc;stop-opacity:1;"
         offset="0"
         id="stop5868" />
      <stop
         style="stop-color:#2e91dc;stop-opacity:0;"
         offset="1"
         id="stop5870" />
    </linearGradient>
    <linearGradient
       id="linearGradient5704"
       osb:paint="solid">
      <stop
         style="stop-color:#000000;stop-opacity:1;"
         offset="0"
         id="stop5706" />
    </linearGradient>
    <linearGradient
       id="linearGradient5698"
       osb:paint="solid">
      <stop
         style="stop-color:#000000;stop-opacity:1;"
         offset="0"
         id="stop5700" />
    </linearGradient>
    <linearGradient
       inkscape:collect="always"
       id="linearGradient5686">
      <stop
         style="stop-color:#fff180;stop-opacity:1;"
         offset="0"
         id="stop5688" />
      <stop
         style="stop-color:#fff180;stop-opacity:0;"
         offset="1"
         id="stop5690" />
    </linearGradient>
    <linearGradient
       inkscape:collect="always"
       id="linearGradient5609">
      <stop
         style="stop-color:#80ffa4;stop-opacity:1;"
         offset="0"
         id="stop5611" />
      <stop
         style="stop-color:#80ffa4;stop-opacity:0;"
         offset="1"
         id="stop5613" />
    </linearGradient>
    <linearGradient
       inkscape:collect="always"
       id="linearGradient5601">
      <stop
         style="stop-color:#483737;stop-opacity:1;"
         offset="0"
         id="stop5603" />
      <stop
         style="stop-color:#483737;stop-opacity:0;"
         offset="1"
         id="stop5605" />
    </linearGradient>
    <linearGradient
       inkscape:collect="always"
       id="linearGradient5593">
      <stop
         style="stop-color:#ff6600;stop-opacity:1;"
         offset="0"
         id="stop5595" />
      <stop
         style="stop-color:#ff6600;stop-opacity:0;"
         offset="1"
         id="stop5597" />
    </linearGradient>
    <linearGradient
       inkscape:collect="always"
       id="linearGradient5561">
      <stop
         style="stop-color:#ffaaaa;stop-opacity:1;"
         offset="0"
         id="stop5563" />
      <stop
         style="stop-color:#ffaaaa;stop-opacity:0;"
         offset="1"
         id="stop5565" />
    </linearGradient>
    <linearGradient
       inkscape:collect="always"
       id="linearGradient5551">
      <stop
         style="stop-color:#379ec8;stop-opacity:1;"
         offset="0"
         id="stop5553" />
      <stop
         style="stop-color:#379ec8;stop-opacity:0;"
         offset="1"
         id="stop5555" />
    </linearGradient>
    <radialGradient
       inkscape:collect="always"
       xlink:href="#linearGradient5551"
       id="radialGradient5559"
       cx="316.93268"
       cy="649.81683"
       fx="316.93268"
       fy="649.81683"
       r="9.7260714"
       gradientTransform="matrix(1,0,0,0.98663333,0,8.6858883)"
       gradientUnits="userSpaceOnUse" />
    <radialGradient
       inkscape:collect="always"
       xlink:href="#linearGradient5561"
       id="radialGradient5567"
       cx="292.16317"
       cy="654.67358"
       fx="292.16317"
       fy="654.67358"
       r="7.7644423"
       gradientTransform="matrix(1,0,0,0.89228402,0,70.518804)"
       gradientUnits="userSpaceOnUse" />
    <radialGradient
       inkscape:collect="always"
       xlink:href="#linearGradient5686"
       id="radialGradient5583"
       cx="220.92413"
       cy="632.91895"
       fx="220.92413"
       fy="632.91895"
       r="9.7260714"
       gradientTransform="matrix(2.1340272,0,0,2.2747027,-212.89405,-816.25418)"
       gradientUnits="userSpaceOnUse" />
    <radialGradient
       inkscape:collect="always"
       xlink:href="#linearGradient5593"
       id="radialGradient5599"
       cx="195.14166"
       cy="620.40236"
       fx="195.14166"
       fy="620.40236"
       r="14.313397"
       gradientTransform="matrix(1,0,0,0.8938777,0,65.838525)"
       gradientUnits="userSpaceOnUse" />
    <radialGradient
       inkscape:collect="always"
       xlink:href="#linearGradient5601"
       id="radialGradient5607"
       cx="253.13433"
       cy="626.79095"
       fx="253.13433"
       fy="626.79095"
       r="17.963646"
       gradientTransform="matrix(0.48703527,0,0,0.46712973,97.55151,344.44032)"
       gradientUnits="userSpaceOnUse" />
    <radialGradient
       inkscape:collect="always"
       xlink:href="#linearGradient5609"
       id="radialGradient5615"
       cx="361.82887"
       cy="656.53596"
       fx="361.82887"
       fy="656.53596"
       r="8.9709609"
       gradientTransform="matrix(1,0,0,0.93895614,58.281161,37.163431)"
       gradientUnits="userSpaceOnUse" />
    <radialGradient
       inkscape:collect="always"
       xlink:href="#linearGradient5561-7"
       id="radialGradient5567-7"
       cx="292.16318"
       cy="654.67358"
       fx="292.16318"
       fy="654.67358"
       r="7.7644424"
       gradientTransform="matrix(1,0,0,0.89228402,0,70.518804)"
       gradientUnits="userSpaceOnUse" />
    <linearGradient
       inkscape:collect="always"
       id="linearGradient5561-7">
      <stop
         style="stop-color:#ffaaaa;stop-opacity:1;"
         offset="0"
         id="stop5563-1" />
      <stop
         style="stop-color:#ffaaaa;stop-opacity:0;"
         offset="1"
         id="stop5565-2" />
    </linearGradient>
    <radialGradient
       inkscape:collect="always"
       xlink:href="#linearGradient5686"
       id="radialGradient5696"
       cx="121.69077"
       cy="683.81421"
       fx="121.69077"
       fy="683.81421"
       r="28.162848"
       gradientTransform="matrix(0.39053299,0,0,0.35869253,394.7129,406.48051)"
       gradientUnits="userSpaceOnUse" />
    <linearGradient
       inkscape:collect="always"
       xlink:href="#linearGradient5866"
       id="linearGradient5872"
       x1="86.014287"
       y1="617.40044"
       x2="101.2263"
       y2="617.40044"
       gradientUnits="userSpaceOnUse" />
    <radialGradient
       inkscape:collect="always"
       xlink:href="#linearGradient5876"
       id="radialGradient5896"
       cx="65.77211"
       cy="653.46722"
       fx="65.77211"
       fy="653.46722"
       r="30.271303"
       gradientTransform="matrix(1,0,0,1.0376799,0,-24.622605)"
       gradientUnits="userSpaceOnUse" />
  </defs>
  <sodipodi:namedview
     id="base"
     pagecolor="#ffffff"
     bordercolor="#666666"
     borderopacity="1.0"
     inkscape:pageopacity="0.0"
     inkscape:pageshadow="2"
     inkscape:zoom="1.0294922"
     inkscape:cx="383.21695"
     inkscape:cy="608.73476"
     inkscape:document-units="px"
     inkscape:current-layer="layer1"
     showgrid="false"
     inkscape:window-width="1280"
     inkscape:window-height="962"
     inkscape:window-x="-8"
     inkscape:window-y="-8"
     inkscape:window-maximized="1" />
  <metadata
     id="metadata7">
    <rdf:RDF>
      <cc:Work
         rdf:about="">
        <dc:format>image/svg+xml</dc:format>
        <dc:type
           rdf:resource="http://purl.org/dc/dcmitype/StillImage" />
        <dc:title></dc:title>
      </cc:Work>
    </rdf:RDF>
  </metadata>
  <g
     inkscape:label="レイヤー 1"
     inkscape:groupmode="layer"
     id="layer1">
    <path
       style="fill:#000000;fill-opacity:1;stroke:#222110;stroke-width:1px;stroke-linecap:butt;stroke-linejoin:miter;stroke-opacity:1"
       d="m 196.4375,182.8125 c -1.07343,5.05189 -3.81385,12.20363 -3.71875,13.75 -6.28143,17.38839 -4.33081,14.7718 -5.90625,19.21875 l 0,16.46875 c 2.11725,14.22432 1.45886,32.63027 8.25,39.84375 1.6025,0.80125 -29.21906,18.62311 -35.71875,76.9375 -4.30111,38.58897 1.71775,62.69489 9.625,81.03125 2.43536,5.64744 5.0468,10.69262 7.59375,15.5 -1.76245,0.0503 -25.63084,0.74745 -56.71875,3.0625 -32.281956,2.40398 -95.8125,17.84375 -95.8125,17.84375 0,0 1.958115,0.92849 2.46875,1.4375 4.589071,-1.25069 29.212277,-6.23186 53.46875,-10.375 27.24084,-4.6529 51.90625,-7.1875 51.90625,-7.1875 l 45.96875,-2.375 c 2.76795,5.18542 5.41857,10.1414 7.59375,15.0625 10.93928,24.74891 71.4375,45.34375 71.4375,45.34375 0,0 61.83595,12.375 53.59375,12.375 -8.2422,0 -20.625,37.09375 -20.625,37.09375 0,0 -23.35675,8.22005 -37.09375,9.59375 -13.73701,1.3737 -27.46875,-8.21875 -27.46875,-8.21875 0,0 -19.23565,-19.24345 -37.09375,-45.34375 -6.00917,-8.78263 -21.01421,-9.23622 -27.375,-9.59375 -12.54227,-0.70499 -15.1875,6.84375 -15.1875,6.84375 -0.30531,0.15266 6.21999,14.6784 17.375,16.65625 7.88697,1.3984 21.069,31.42055 27.9375,46.53125 6.8685,15.11071 45.34375,34.34375 45.34375,34.34375 16.9423,-1.07772 33.8702,1.3178 50.8125,-6.875 0,0 1.39715,64.5755 -8.21875,78.3125 -9.6159,13.73701 -12.94206,12.51757 -12.94206,12.51757 -2.24496,4.08686 -7.11876,3.26106 -2.00976,8.57358 0,0 17.67967,-0.4974 27.29557,-0.4974 9.6159,0 28.84375,-20.59375 28.84375,-20.59375 0,0 1.46875,-79.10804 1.46875,-94.21875 0,-15.1107 9.4375,-18.34375 9.4375,-18.34375 l -2.65625,112.5625 -6.875,13.71875 c -2.73959,9.52302 -8.44497,17.66373 -6.875,19.25 0.63041,1.57602 4.5998,8.69816 23.375,1.375 19.36682,-7.55392 24.71875,-31.59375 24.71875,-31.59375 3.36474,-31.72392 1.84664,-80.56751 2.75,-120.90625 l 8.25,0 c 1.26358,0.84239 0.81853,57.21898 1.09375,91.21875 0.0754,9.31049 0.1529,16.49822 1.5,22.25 4.05909,17.33137 2.03914,9.6149 3.78125,13.3125 3.15332,6.69286 2.27369,6.05301 5.125,10.34375 9.34329,14.0601 21.19338,15.375 20.09375,15.375 l 17.84375,2.75 c 1.98721,-1.01359 4.72719,-1.03388 4.125,-5.5 L 410.75,682.84375 l 0,-116.78125 9.59375,15.125 c 0.74263,-1.85658 -1.3752,34.50112 -0.65625,52.125 0.51513,12.62734 0.4587,19.90623 0.71875,23.71875 0.58098,8.51763 -2.61659,7.9461 3.25,19.875 0,0 0.0547,3.49299 2.25,6.375 4.06786,5.3404 6.5149,6.00085 8.3125,7.71875 5.61604,5.36706 4.08277,1.84741 6.71875,4.4375 7.9286,7.79057 14.08039,8.64282 11,6.28125 13.03572,4.19949 15.67109,2.59877 26.125,0.34375 0,0 8.22988,-3.09038 0,-8.25 -26.46509,-16.59195 -20.5378,-24.85571 -26.125,-31.21875 0.23883,-0.61858 2.19483,-7.39223 2.25,-21.03125 0.0949,-23.47492 -1.66415,-63.11579 -5,-86.46875 -2.5253,-17.67865 -21.96875,-35.71875 -21.96875,-35.71875 0,0 15.11585,-4.125 38.46875,-4.125 23.3529,0 63.18224,-19.22129 90.65625,-54.9375 3.20483,-4.16627 5.85718,-8.3796 8.09375,-12.625 1.95909,0.13708 33.87944,2.36558 58.53125,4.03125 C 648.38221,453.43587 715,468.875 715,468.875 c 0,0 2.74772,1.37143 0.34375,-2.40625 C 712.93977,462.69108 624,448.96875 624,448.96875 L 565.6875,445.25 c 2.09778,-4.32034 3.7353,-8.71259 5.03125,-13.125 l 65.65625,0 c 20.26208,0 77.93977,9.96875 80.34375,9.96875 2.40397,0 1.03027,-0.3457 0,-2.40625 -1.03028,-2.06055 -77.59375,-9.28125 -77.59375,-9.28125 L 571.5,429.375 c 6.98411,-26.92089 1.34375,-55.64683 1.34375,-87.21875 0,-43.9584 -34.34375,-75.5625 -34.34375,-75.5625 0.17502,-13.80111 4.44307,-18.3707 0,-42.5625 5.26063,3.75759 -4.95995,-34.45593 -8.25,-39.84375 -1.82535,-2.98921 -25.04096,2.02417 -41.21875,8.25 -7.25429,2.79173 -27.02256,10.60626 -37.34375,18.25 -3.28812,2.43515 -5.40648,5.72347 -6.21875,7.125 -8.36783,-2.43245 -60.75183,-10.06301 -86.9375,-8.90625 -23.81073,1.05184 -69.49287,8.81134 -72.96875,9.40625 -4.44956,-3.77934 -29.28328,-19.2304 -42.40625,-24.5 -19.40191,-7.79094 -47.73064,-9.93535 -46.71875,-11 z M 26.5,467.90625 c -0.621454,0.16937 -0.914738,0.26066 -0.75,0.28125 0.917197,0.11465 1.005902,-0.0262 0.75,-0.28125 z M 168.96875,430.0625 c 0,0 -46.0208,-0.68652 -68,0.34375 C 78.989548,431.43653 23,440.03125 23,440.03125 c 0,0 0.687825,3.09213 1.03125,1.375 0.343425,-1.71712 79.6875,-8.25 79.6875,-8.25 L 170,432.8125 z"
       id="path3015"
       inkscape:connector-curvature="0"
       sodipodi:nodetypes="cccccsscsccsccscscscsscssccsccscsccccscccssssccccccsscsssccscsscsscscscccsssccsccssscscscccccscsccc" />
    <path
       style="fill:#ffccaa;stroke:#000000;stroke-width:1px;stroke-linecap:butt;stroke-linejoin:miter;stroke-opacity:1;fill-opacity:1"
       d="m 307.70883,343.53291 c 0,0 115.39081,-1.3737 144.23852,0 28.8477,1.3737 57.48466,7.93118 63.1902,31.5951 4.72696,19.60521 21.71883,79.90581 -13.737,104.40121 -35.38101,24.44371 -35.7162,30.22141 -107.14861,27.47401 -71.43241,-2.7474 -114.01711,-2.7474 -134.62261,-16.4844 -20.60551,-13.73701 -50.74186,-36.9198 -49.45321,-75.55351 0.8689,-26.04964 16.4844,-68.68501 56.32171,-71.43241 39.8373,-2.7474 41.211,0 41.211,0 z"
       id="path3017"
       inkscape:connector-curvature="0"
       sodipodi:nodetypes="csssssssc" />
    <path
       style="fill:#f9f9f9;fill-opacity:1;"
       d="m 285.72963,368.25951 c 2.59389,-1.03756 35.43223,7.49965 30.2214,48.07951 -5.31441,41.38646 -25.75462,45.53951 -26.1003,45.3321 3.17697,0.77278 -36.85654,10.45842 -38.4636,-43.9584 -1.55051,-52.50198 37.07795,-49.43816 34.3425,-49.45321 z"
       id="path3021"
       inkscape:connector-curvature="0"
       sodipodi:nodetypes="cscsc" />
    <path
       style="fill:#f9f9f9;fill-opacity:1;stroke:#000000;stroke-width:0;stroke-linecap:butt;stroke-linejoin:miter;stroke-opacity:1;stroke-miterlimit:4;stroke-dasharray:none"
       d="m 459.33098,368.8605 c -0.0464,-0.0361 0.47122,-0.29207 1.12312,-0.34836 0.26464,-0.0229 0.57927,-0.12652 0.93814,-0.0484 6.5925,1.43538 29.12207,3.27383 29.01871,43.75416 -0.10913,42.74326 -26.99999,48.61931 -26.1003,48.0795 4.02029,0.29018 -39.45142,17.97955 -39.75398,-43.9584 -0.232,-47.49497 27.02353,-48.96481 34.36822,-47.99814 1.42637,0.18774 0.69729,0.46736 0.40609,0.51962 z"
       id="path3023"
       inkscape:connector-curvature="0"
       sodipodi:nodetypes="cssscssc" />
    <path
       style="fill:#803300;"
       d="m 369.52534,464.01617 c 0.0757,0.0252 -10.29758,-2.57228 -8.2422,-10.58725 1.00509,-3.91936 6.08713,-6.18043 8.81968,-5.91013 3.20772,0.31731 5.45948,4.43556 6.29102,7.28383 1.87838,6.43399 -6.3153,9.49015 -6.8685,9.21355 z"
       id="path3047"
       inkscape:connector-curvature="0"
       sodipodi:nodetypes="csssc" />
    <path
       style="fill:#803300;"
       d="m 351.62967,471.97895 c 0,0 7.56913,11.55138 16.99867,11.65624 12.34789,0.13732 18.51661,-12.48739 16.80003,-11.6857 l 1.13503,-0.82743 1.12123,0.54924 0.14266,1.59296 c 0,0 -5.11433,17.17038 -19.19895,16.19903 -14.08461,-0.97135 -18.94137,-15.54164 -18.94137,-15.54164 l 0.59034,-1.62061 z"
       id="path3049"
       inkscape:connector-curvature="0"
       sodipodi:nodetypes="csccccsccc" />
    <path
       style="fill:#803300;"
       d="m 284.60633,385.04289 c 0,0 22.8268,2.42838 21.36977,30.5976 -1.45703,28.16923 -22.34112,31.56897 -22.34112,31.56897 0,0 -24.28381,-8.2565 -20.3984,-34.9687 3.88541,-26.7122 21.36975,-27.19787 21.36975,-27.19787 z"
       id="path3051"
       inkscape:connector-curvature="0"
       sodipodi:nodetypes="cscsc" />
    <path
       style="fill:#803300;"
       d="m 459.44982,384.07154 c 0,0 1.08131,0.0815 1.76051,0.42929 4.22397,2.1629 18.77401,11.38996 18.6379,30.65399 -0.0771,10.9061 -3.35316,18.62442 -7.19424,23.74498 -5.41104,7.21348 -11.94329,9.27165 -12.23282,7.82398 0,0 -7.63028,-0.37137 -13.76551,-5.12756 -5.58576,-4.33023 -9.68298,-12.46123 -10.5183,-24.01302 -1.69291,-23.41143 16.39157,-33.37586 21.54547,-33.75 0.84453,-0.0613 1.55862,0.13416 1.76699,0.23834 z"
       id="path3053"
       inkscape:connector-curvature="0"
       sodipodi:nodetypes="cssscsssc" />
    <path
       id="path5357"
       style="fill:#a7e7c0;stroke:#000000;stroke-width:1px;stroke-linecap:butt;stroke-linejoin:miter;stroke-opacity:1;fill-opacity:1"
       d="M 398.375,522.8125 368.84375,555.09375 398.375,522.8125 z m -70.06067,-0.69857 c 0.96042,0.54909 96.58331,79.35814 99.59326,80.36146 m -142.17796,-0.68685 166.21772,0 3.43425,37.0899 -174.45992,-1.3737 z m -82.42201,-70.05871 c 0,0 20.6055,35.7162 40.52415,34.3425 19.91866,-1.3737 44.64526,-8.92905 44.64526,-8.92905 0,0 14.42385,-37.0899 20.6055,-36.40305 6.18165,0.68685 28.16085,1.3737 28.16085,1.3737 l 29.53456,15.1107 23.3529,-14.42385 39.15045,-2.7474 c -1.32737,-1.32737 15.34284,18.77708 19.23181,28.8477 2.22689,5.76661 8.92905,115.39081 8.92905,115.39081 l -179.26787,0.68685 7.55535,-62.50335 -11.67645,46.7058 c 0,0 -96.15901,8.2422 -98.21956,-27.474 -2.06055,-35.71621 27.474,-89.97736 27.474,-89.97736 z" />
    <path
       style="fill:#ff5555;fill-opacity:1;"
       d="m 326.74926,637.02949 c -24.0514,-0.19574 -43.84963,-0.51043 -43.99606,-0.69931 -0.14643,-0.18889 0.64588,-7.84008 1.76068,-17.00265 l 2.02693,-16.65923 82.24353,0.0118 82.24353,0.0118 0.42309,3.59727 c 0.2327,1.97849 0.88465,8.85166 1.44878,15.27371 0.56413,6.42205 1.16214,12.68097 1.32891,13.90871 l 0.30321,2.23227 -42.02638,-0.15925 c -23.11451,-0.0876 -61.70481,-0.3194 -85.75622,-0.51514 z"
       id="path5375"
       inkscape:connector-curvature="0" />
    <path
       style="fill:#ffffff;fill-opacity:1;"
       d="m 349.64446,538.37567 -18.77408,-15.37576 3.10642,0 c 2.6062,0 5.48877,1.22465 17.90073,7.60504 8.13686,4.18276 15.03277,7.4734 15.32423,7.31252 0.29146,-0.16088 5.62979,-3.39517 11.86296,-7.18732 8.65836,-5.26759 12.12346,-7.00639 14.68224,-7.3676 l 3.34921,-0.4728 -13.89294,15.16806 c -7.64112,8.34243 -14.09359,15.28631 -14.33882,15.43084 -0.24522,0.14453 -8.8942,-6.65631 -19.21995,-15.11298 z"
       id="path5421"
       inkscape:connector-curvature="0" />
    <path
       id="path5451"
       style="fill:url(#radialGradient5599);stroke:#000000;stroke-width:0.441;stroke-linecap:butt;stroke-linejoin:miter;stroke-opacity:1;fill-opacity:1;stroke-miterlimit:4;stroke-dasharray:none"
       d="m 196.69081,622.27051 c 0,0 -5.9483,2.46642 -10.05653,1.69692 -3.82325,-0.71613 -5.49762,-4.56311 -5.48538,-4.66652 l 0.15901,-1.62905 1.02995,-0.75989 1.44862,-0.72188 1.01934,0.14123 c 0.15211,-0.12849 3.35582,1.07527 6.39961,4.24228 2.57492,2.67916 5.50758,1.68199 5.48538,1.69691 z m -1.82846,0.84846 c 0,0 0.68213,-0.23352 0.76964,0.26879 0.21248,1.21974 -0.12208,4.04423 -0.76964,5.24618 -0.91423,1.69691 -5.48538,4.24228 -5.48538,4.24228 0,0 -3.19981,-3.39383 -0.45712,-6.36343 2.74269,-2.96959 5.9425,-3.39382 5.9425,-3.39382 z m 1.37134,-0.42423 c 0,0 4.11403,-0.42423 6.39961,2.12115 2.28557,2.54537 1.82846,5.51496 1.82846,5.51496 0,0 -5.48538,1.69691 -7.77095,-0.84846 -2.28558,-2.54537 -0.45712,-6.78765 -0.45712,-6.78765 z m 0.45712,0 c 0,0 1.31252,-4.56042 4.57114,-6.36342 3.50583,-1.93978 7.77096,0 7.77096,0 0,0 0.91423,5.09074 -2.74269,5.93919 -3.65692,0.84846 -9.59941,0.42423 -9.59941,0.42423 z m -0.45712,0 c 0.10002,0.0288 -5.90453,-0.31098 -7.31384,-7.21188 -1.27399,-6.23832 1.37135,-8.48457 3.19981,-7.21189 1.82846,1.27269 5.02826,0.84847 5.48538,5.9392 0.45711,5.09074 -1.37135,8.48457 -1.37135,8.48457 z"
       inkscape:connector-curvature="0"
       sodipodi:nodetypes="cscccccsccsscsccscsccscsccsssc" />
    <path
       id="path5465"
       style="fill:url(#radialGradient5583);fill-opacity:1.0;stroke:#000000;stroke-width:0.62107283000000002;stroke-linecap:butt;stroke-linejoin:miter;stroke-miterlimit:4;stroke-opacity:1;stroke-dasharray:none"
       d="m 256.66811,627.00238 c -1.09019,-1.77525 -7.803,6.99253 -13.02119,4.25571 -6.08512,-3.19153 -5.29196,-4.43105 -5.29196,-4.43105 0,0 -0.3847,-8.2243 3.43962,-9.17424 0.72374,-0.1796 2.15272,-0.44914 3.30743,-0.21395 7.2759,1.48245 15.11217,10.54748 11.5661,9.56346 z m 0.72564,0 c 0,0 3.62818,11.81612 0,15.50866 -3.62817,3.69252 -4.3538,2.21551 -4.3538,2.21551 0,0 -6.53072,-3.69252 -4.3538,-9.6006 2.1769,-5.90804 8.7076,-8.12357 8.7076,-8.12357 z m 0,-2.21552 c 0,0 9.83536,3.24636 13.57832,5.94901 0.78404,0.56614 1.76089,2.00981 1.76089,2.00981 -0.43794,0.66985 0.32463,0.34055 0.65649,0.9724 0.72293,1.37652 0.46689,3.33755 0.36648,4.40265 -0.14469,1.53605 -2.57509,2.56644 -2.57509,2.56644 0,0 -0.82269,1.16274 -3.6176,-0.66028 -2.25093,-1.4682 -5.96136,-4.36836 -10.16949,-15.24003 z m 2.1769,0.73851 c 0,0 1.32203,-5.76641 3.8281,-6.9888 1.67327,-0.8161 4.31483,-2.89077 5.47687,-3.18646 1.38633,-0.35274 3.69938,-0.55415 5.6036,-0.94111 2.08261,-0.42322 3.95798,1.20221 3.95798,1.20221 0,-0.13026 0.67943,1.46583 0.19654,2.99347 -0.66486,2.1021 -1.79425,6.39245 -5.78509,7.69631 -2.10678,0.68834 -2.27037,0.45654 -3.73626,0.53447 -4.18911,0.22294 -9.54149,-1.31009 -9.54149,-1.31009 z m -0.72564,0.7385 c 0.22324,0 -8.67324,-4.43102 -9.43323,-14.77011 -0.76558,-10.41498 5.07943,-9.6006 5.07943,-9.6006 0,0 9.43328,0.73852 8.70767,10.33913 -0.72566,9.60056 -4.35387,14.03158 -4.35387,14.03158 z"
       inkscape:connector-curvature="0"
       sodipodi:nodetypes="cscssccscsccsssscsccssscsssccscsc" />
    <path
       id="path5476"
       style="fill:url(#radialGradient5607);fill-opacity:1;stroke:#000000;stroke-width:0.494;stroke-linecap:butt;stroke-linejoin:miter;stroke-miterlimit:4;stroke-opacity:1;stroke-dasharray:none"
       d="m 220.66016,637.91271 c 0,0 -4.4784,-0.65341 -5.11816,-1.96023 -0.63977,-1.30682 -1.88346,-3.22682 -0.63977,-5.00947 1.19052,-1.70645 2.33982,-1.53687 3.62536,0.21781 1.27763,1.74388 2.13257,6.75189 2.13257,6.75189 z m 0,0.6534 -3.19885,2.83144 c 0,0 -1.77478,0.96548 -3.41211,0.65342 -1.27954,-0.24389 -1.49279,-1.30666 -1.49279,-1.30683 0,0 -0.85304,-2.39582 1.49279,-2.83143 2.34582,-0.43561 4.47839,-0.43561 4.47839,-0.43561 z m 0.21325,-0.21779 c 0,0 2.33823,2.87215 3.0244,3.54862 1.13041,1.11445 0.55879,2.25513 -0.16529,2.66626 -0.86842,0.49307 -0.33801,0.47554 -0.9398,0.537 -0.89255,0.0912 -2.20082,0.45639 -2.80669,-0.0452 -0.84173,-0.69689 -0.81868,-2.35061 -0.81868,-2.35061 l -0.21325,-2.17803 z m 0.42651,0 c 0,0 2.9786,-0.84191 4.69463,-0.63436 0.41516,0.0503 0.32551,0.24874 0.64973,0.23611 3.26281,-0.12706 2.56193,3.26535 2.55908,3.26706 0,0 -1.749,2.41187 -3.6383,1.26944 -1.64847,-0.99681 -0.66624,-0.8421 -3.08465,-2.31883 -0.54911,-0.33529 -1.18049,-1.81942 -1.18049,-1.81942 z m 0,-0.43561 c 0,0 -1.9193,-2.39583 0.42653,-5.88068 2.34582,-3.48485 4.26513,-2.83144 4.26513,-2.83144 0,0 1.9193,2.83144 0.85302,4.57386 -1.06629,1.74243 -1.91931,3.70265 -3.19884,4.13826 -1.27955,0.43561 -2.34584,0 -2.34584,0 z"
       inkscape:connector-curvature="0"
       sodipodi:nodetypes="cssscccscscccssssccccsscssccscssc" />
    <path
       id="path5465-5-2"
       style="opacity:0.86970683999999998;fill:url(#radialGradient5559);fill-opacity:1;stroke:#000000;stroke-width:0.48049617000000000px;stroke-linecap:butt;stroke-linejoin:miter;stroke-opacity:1"
       d="m 316.04424,651.3584 c -0.51086,-0.77 -3.65647,3.03295 -6.1017,1.84589 -2.85147,-1.3843 -2.4798,-1.92194 -2.4798,-1.92194 0,0 -0.18027,-3.56722 1.6118,-3.97925 0.33914,-0.0779 1.00876,-0.1948 1.54985,-0.0928 3.40947,0.643 7.08153,4.57489 5.41985,4.14807 z m 0.34003,0 c 0,0 1.70016,5.12514 0,6.72676 -1.70015,1.6016 -2.04018,0.96096 -2.04018,0.96096 0,0 -3.06028,-1.6016 -2.04018,-4.16419 1.02009,-2.56255 4.08036,-3.52353 4.08036,-3.52353 z m 0,-0.96095 c 0,0 4.60883,1.40808 6.36277,2.58033 0.3674,0.24555 0.82515,0.87174 0.82515,0.87174 -0.20522,0.29053 0.15212,0.1477 0.30763,0.42177 0.33876,0.59704 0.21878,1.44762 0.17173,1.90961 -0.0678,0.66624 -1.20668,1.11317 -1.20668,1.11317 0,0 -0.38551,0.50433 -1.6952,-0.28639 -1.05478,-0.63682 -2.79348,-1.89475 -4.7654,-6.61023 z m 1.02009,0.32031 c 0,0 0.6195,-2.50113 1.79384,-3.03133 0.78409,-0.35398 2.02192,-1.25385 2.56645,-1.3821 0.64963,-0.153 1.73352,-0.24036 2.62583,-0.4082 0.97591,-0.18357 1.8547,0.52145 1.8547,0.52145 0,-0.0565 0.31838,0.63579 0.0921,1.29839 -0.31155,0.91177 -0.84078,2.77268 -2.71088,3.33821 -0.98723,0.29857 -1.06389,0.19803 -1.7508,0.23183 -1.96301,0.0967 -4.47112,-0.56825 -4.47112,-0.56825 z m -0.34003,0.32033 c 0.10461,0 -4.06426,-1.92193 -4.42039,-6.40642 -0.35875,-4.51741 2.38021,-4.16418 2.38021,-4.16418 0,0 4.42041,0.32033 4.08039,4.48451 -0.34004,4.16416 -2.04021,6.08609 -2.04021,6.08609 z"
       inkscape:connector-curvature="0"
       sodipodi:nodetypes="cscssccscsccsssscsccssscsssccscsc" />
    <path
       id="path5451-3"
       style="fill:url(#radialGradient5615);fill-opacity:1;stroke:#000000;stroke-width:0.312;stroke-linecap:butt;stroke-linejoin:miter;stroke-opacity:1;stroke-miterlimit:4;stroke-dasharray:none"
       d="m 421.08041,654.85258 c 0,0 -3.72598,1.62481 -6.29936,1.11788 -2.39486,-0.47176 -3.44367,-3.00604 -3.43601,-3.07417 l 0.0996,-1.07317 0.64516,-0.50059 0.90741,-0.47555 0.63851,0.093 c 0.0953,-0.0846 2.10206,0.70836 4.00868,2.7947 1.61291,1.76494 3.44992,1.10804 3.43601,1.11787 z m -1.14534,0.55894 c 0,0 0.42729,-0.15384 0.4821,0.17707 0.1331,0.80353 -0.0764,2.66422 -0.4821,3.45603 -0.57266,1.11788 -3.43601,2.79469 -3.43601,2.79469 0,0 -2.00434,-2.23575 -0.28633,-4.19204 1.718,-1.95628 3.72234,-2.23575 3.72234,-2.23575 z m 0.859,-0.27947 c 0,0 2.57701,-0.27947 4.00869,1.39735 1.43166,1.67682 1.14533,3.6331 1.14533,3.6331 0,0 -3.43601,1.11787 -4.86768,-0.55894 -1.43167,-1.67682 -0.28634,-4.47151 -0.28634,-4.47151 z m 0.28634,0 c 0,0 0.82215,-3.00427 2.86333,-4.19204 2.19604,-1.27786 4.8677,0 4.8677,0 0,0 0.57266,3.35364 -1.71801,3.91257 -2.29067,0.55894 -6.01302,0.27947 -6.01302,0.27947 z m -0.28634,0 c 0.0627,0.019 -3.69856,-0.20487 -4.58134,-4.75097 -0.79803,-4.10963 0.859,-5.58939 2.00433,-4.75099 1.14535,0.83842 3.14968,0.55895 3.43602,3.91257 0.28633,3.35363 -0.85901,5.58939 -0.85901,5.58939 z"
       inkscape:connector-curvature="0"
       sodipodi:nodetypes="cscccccsccsscsccscsccscsccsssc" />
    <path
       id="path5476-1"
       style="fill:url(#radialGradient5567);stroke:#000000;stroke-width:0.337;stroke-linecap:butt;stroke-linejoin:miter;stroke-opacity:1;fill-opacity:1;stroke-miterlimit:4;stroke-dasharray:none"
       d="m 292.00609,655.23374 c 0,0 -3.98135,-0.53847 -4.55011,-1.61542 -0.56876,-1.07694 -1.67441,-2.6592 -0.56876,-4.12828 1.05839,-1.40628 2.08013,-1.26653 3.22299,0.17949 1.13583,1.43713 1.89588,5.56421 1.89588,5.56421 z m 0,0.53847 -2.84382,2.33338 c 0,0 -1.5778,0.79564 -3.03341,0.53846 -1.13752,-0.20098 -1.32711,-1.07681 -1.32711,-1.07694 0,0 -0.75835,-1.97439 1.32711,-2.33337 2.08547,-0.35898 3.98135,-0.35898 3.98135,-0.35898 z m 0.18959,-0.17949 c 0,0 2.0787,2.36693 2.68873,2.92441 1.00494,0.9184 0.49677,1.85844 -0.14695,2.19725 -0.77204,0.40634 -0.3005,0.39189 -0.83549,0.44254 -0.7935,0.0751 -1.95656,0.3761 -2.49519,-0.0373 -0.74831,-0.5743 -0.72781,-1.93712 -0.72781,-1.93712 l -0.18959,-1.79491 z m 0.37917,0 c 0,0 2.64801,-0.69382 4.17358,-0.52276 0.36909,0.0414 0.28938,0.20498 0.57762,0.19457 2.90068,-0.10472 2.27759,2.69095 2.27505,2.69237 0,0 -1.55487,1.98761 -3.23449,1.04613 -1.46551,-0.82146 -0.5923,-0.69397 -2.74229,-1.91093 -0.48817,-0.27631 -1.04947,-1.49938 -1.04947,-1.49938 z m 0,-0.35898 c 0,0 -1.70629,-1.9744 0.37918,-4.84624 2.08546,-2.87185 3.79175,-2.33338 3.79175,-2.33338 0,0 1.7063,2.33338 0.75836,3.7693 -0.94794,1.43592 -1.70629,3.05134 -2.84382,3.41032 -1.13753,0.35898 -2.08547,0 -2.08547,0 z"
       inkscape:connector-curvature="0"
       sodipodi:nodetypes="cssscccscscccssssccccsscssccscssc" />
    <path
       id="path5476-1-6"
       style="fill:url(#radialGradient5696);fill-opacity:1;stroke:#000000;stroke-width:0.5;stroke-miterlimit:4;stroke-opacity:1;stroke-dasharray:none"
       d="m 442.01542,652.57921 c 0,0 -5.62007,-0.78794 -6.42293,-2.36384 -0.80286,-1.57587 -2.3636,-3.89118 -0.80286,-6.04087 1.49402,-2.0578 2.93631,-1.8533 4.54957,0.26264 1.60333,2.10295 2.67622,8.14207 2.67622,8.14207 z m 0,0.78793 -4.01433,3.41442 c 0,0 -2.22723,1.16425 -4.28197,0.78792 -1.60572,-0.29409 -1.87334,-1.57569 -1.87334,-1.57587 0,0 -1.07049,-2.88912 1.87334,-3.4144 2.94386,-0.5253 5.62008,-0.5253 5.62008,-0.5253 z m 0.26763,-0.26265 c 0,0 2.93428,3.46352 3.79541,4.27927 1.41856,1.34389 0.70124,2.71944 -0.20744,3.21522 -1.08981,0.59459 -0.42419,0.57345 -1.17938,0.64756 -1.12011,0.1099 -2.76188,0.55035 -3.52221,-0.0546 -1.05631,-0.84037 -1.02737,-2.83457 -1.02737,-2.83457 l -0.26763,-2.62648 z m 0.53523,0 c 0,0 3.73793,-1.01525 5.89142,-0.76494 0.52101,0.0606 0.40849,0.29994 0.81537,0.28471 4.0946,-0.15324 3.21504,3.93764 3.21146,3.93972 0,0 -2.19485,2.90845 -4.56581,1.53079 -2.06871,-1.20203 -0.83608,-1.01548 -3.87101,-2.79625 -0.6891,-0.40432 -1.48143,-2.19403 -1.48143,-2.19403 z m 0,-0.52528 c 0,0 -2.4086,-2.88913 0.53525,-7.09147 2.94383,-4.20235 5.35243,-3.41441 5.35243,-3.41441 0,0 2.40861,3.41441 1.0705,5.51559 -1.33811,2.10116 -2.4086,4.46499 -4.01433,4.99029 -1.60574,0.52528 -2.94385,0 -2.94385,0 z"
       inkscape:connector-curvature="0"
       sodipodi:nodetypes="cssscccscscccssssccccsscssccscssc" />
    <path
       style="fill:none;stroke:#000000;stroke-width:1.5;stroke-linecap:butt;stroke-linejoin:miter;stroke-miterlimit:4;stroke-opacity:1;stroke-dasharray:none"
       d="m 139.43056,471.28702 c 0,0 25.41346,9.6159 6.18165,40.52416 -19.2318,30.90825 -52.2006,48.76635 -52.2006,48.76635 0,0 -15.110702,6.8685 -17.858102,20.6055 -2.747401,13.73701 9.615901,46.01896 9.615901,46.01896 l 17.858101,-6.18165 c 0,0 -17.171251,-15.79755 -16.484401,-13.05015 0.68685,2.7474 -1.3737,18.54495 -1.3737,18.54495 0,0 23.770421,23.56882 6.18165,43.9584 -20.570605,23.84624 -42.328002,13.50697 -43.958404,13.05015 -8.895598,-2.49243 -20.015831,-17.35462 -8.242201,-45.67553 1.576514,-3.79223 3.423129,-5.32071 4.910404,-8.57626 0.939913,-2.05741 4.003919,-4.1816 5.479423,-5.15625 2.863392,-1.89141 4.441275,-1.48382 5.861978,-1.94781 2.493984,-0.81452 -0.890066,-0.50884 1.287152,-0.15148 2.419134,0.39707 5.539127,-0.77871 6.496248,-0.78031 2.241014,-0.004 3.701966,0.68486 6.529623,0.8146 3.624866,0.16632 5.437602,0.94506 7.574153,1.30437 8.046344,1.35318 7.879974,3.16016 7.879974,3.16016"
       id="path5848"
       inkscape:connector-curvature="0"
       sodipodi:nodetypes="cscsccscssssssssssc" />
    <path
       style="opacity:0.88599351;fill:#2e91dc;fill-opacity:0.77372269;stroke-width:1.70000005;stroke-miterlimit:4;stroke-dasharray:none"
       d="m 53.732496,684.653 c -3.808638,-0.81565 -8.162781,-2.43436 -10.021994,-3.72581 -3.297712,-2.29064 -5.932062,-6.13065 -7.563515,-11.02508 -1.067827,-3.20352 -1.097871,-3.45896 -1.114286,-9.47394 -0.01859,-6.81074 0.482784,-9.95717 2.602971,-16.33539 1.490025,-4.48248 4.279981,-11.23711 5.234545,-12.67309 4.858597,-7.30898 11.905251,-10.00725 23.462294,-8.98408 5.863586,0.51912 12.35491,1.61312 15.217413,2.56462 1.875454,0.62341 2.310787,0.92041 2.723522,1.85814 0.27019,0.61387 0.681874,1.11613 0.914846,1.11613 0.525894,0 3.241562,3.39697 5.628218,7.04022 6.393812,9.76019 7.948957,20.44465 4.155629,28.5508 -1.484672,3.17268 -2.869815,5.04368 -6.536042,8.82865 -6.542573,6.7545 -12.95608,10.57037 -20.623174,12.27025 -3.843725,0.85219 -10.071421,0.84715 -14.080427,-0.0114 l 0,-2e-5 z"
       id="path5860"
       inkscape:connector-curvature="0" />
    <path
       style="opacity:0.88599351;fill:#2e91dc;fill-opacity:0.77372269;stroke-width:1.70000005;stroke-miterlimit:4;stroke-dasharray:none"
       d=""
       id="path5862"
       inkscape:connector-curvature="0" />
    <path
       style="opacity:0.88599351000000004;fill:url(#linearGradient5872);fill-opacity:1;stroke-width:1.70000005000000010;stroke-miterlimit:4;stroke-dasharray:none"
       d="m 86.014287,625.64788 c -9e-5,-0.32587 0.233173,-2.75607 0.51836,-5.40044 0.285188,-2.64437 0.632979,-6.31871 0.772869,-8.16519 l 0.254346,-3.35724 3.346175,2.72599 c 5.572799,4.53993 10.586733,9.08245 10.309263,9.33996 -0.14402,0.13367 -3.198146,1.2495 -6.786937,2.47963 -3.588792,1.23013 -6.950064,2.40157 -7.469495,2.60319 -0.806978,0.31325 -0.944442,0.28037 -0.944581,-0.2259 z"
       id="path5864"
       inkscape:connector-curvature="0" />
    <path
       style="opacity:0.88599351;fill:url(#radialGradient5896);fill-opacity:1;stroke-width:1.70000005;stroke-miterlimit:4;stroke-dasharray:none"
       d="m 53.905793,684.47326 c -3.11122,-0.70503 -6.416738,-1.83233 -8.659228,-2.95311 -3.644398,-1.82145 -7.262697,-6.71276 -9.124433,-12.33464 -0.527762,-1.59368 -0.624836,-3.04264 -0.621226,-9.27248 0.0053,-9.12261 0.467295,-11.3347 4.504486,-21.56746 2.38344,-6.04112 3.765339,-7.66324 6.61403,-10.49056 3.269804,-3.24528 8.937597,-5.29536 14.587601,-5.94173 1.399051,-0.16005 2.569063,0.22186 3.966407,0.1628 6.22921,-0.26327 14.109556,2.03272 17.991685,3.64411 2.326958,0.96588 7.895059,7.71947 9.503579,13.03281 3.421965,11.30361 5.487163,20.5036 -0.05821,28.39992 -2.281232,3.24836 -8.042815,8.94417 -11.367166,11.23741 -3.362681,2.31968 -7.180643,4.2141 -10.889053,5.40303 -2.590354,0.83047 -3.557293,0.94948 -8.585626,1.05673 -4.091082,0.0873 -6.277149,-0.0175 -7.862846,-0.37683 z"
       id="path5874"
       inkscape:connector-curvature="0"
       sodipodi:nodetypes="sssssssssssssss" />
  </g>
</svg>
